<?xml version="1.0" encoding="UTF-8" standalone="no"?>
<svg width="81px" height="81px" viewBox="0 0 81 81" version="1.1" xmlns="http://www.w3.org/2000/svg" xmlns:xlink="http://www.w3.org/1999/xlink">
    <!-- Generator: Sketch 39.1 (31720) - http://www.bohemiancoding.com/sketch -->
    <title>Group</title>
    <desc>Created with Sketch.</desc>
    <defs></defs>
    <g id="Home" stroke="none" stroke-width="1" fill="none" fill-rule="evenodd">
        <g id="Mobile-Portrait" transform="translate(-234.000000, -762.000000)">
            <g id="Join-us" transform="translate(0.000000, 326.000000)">
                <g id="Join-Us" transform="translate(0.000000, 326.000000)">
                    <g id="Group" transform="translate(234.000000, 110.000000)">
                        <path d="M40.5,81 C62.8675324,81 81,62.8675324 81,40.5 C81,18.1324676 62.8675324,0 40.5,0 C18.1324676,0 0,18.1324676 0,40.5 C0,62.8675324 18.1324676,81 40.5,81 Z" id="Oval-1" fill="#5B5B5B"></path>
                        <g id="Icono" transform="translate(18.000000, 18.000000)">
                            <path d="M0.969453267,42.2202656 C1.11485313,41.8954219 9.95404063,22.1158125 11.8667161,17.8358906 C11.3729185,20.403 14.3420257,25.0471406 17.5738361,28.2815156 C21.5010371,32.2126875 25.9086898,34.5182344 28.1915378,33.9304219 C24.234133,35.7037031 3.95612088,44.7662812 3.64986804,44.9026875 C3.08863864,45.1607344 2.24293125,44.8914375 1.61567486,44.2565156 C0.981394318,43.6279219 0.71236946,42.7820625 0.969453267,42.2202656" id="Fill-1144" fill="#F0F1F1"></path>
                            <path d="M0.969453267,42.2202656 C1.11485313,41.8954219 9.95404063,22.1158125 11.8667161,17.8358906 C11.3736209,20.4001875 14.3371088,25.038 17.5647047,28.272375 L1.60654347,44.2466719 C0.979287074,43.6194844 0.713071875,42.7785469 0.969453267,42.2202656" id="Fill-1145" fill="#FFFFFF"></path>
                            <path d="M15.6233707,9.84367969 C15.6233707,10.6206328 16.252032,11.2499297 17.0282003,11.2499297 C17.8043686,11.2499297 18.4330298,10.6206328 18.4330298,9.84367969 C18.4330298,9.06742969 17.8043686,8.43742969 17.0282003,8.43742969 C16.252032,8.43742969 15.6233707,9.06742969 15.6233707,9.84367969" id="Fill-1146" fill="#DF2C2C"></path>
                            <path d="M26.8620071,12.6561797 C26.8620071,13.4331328 27.4906683,14.0624297 28.2668366,14.0624297 C29.043005,14.0624297 29.6716662,13.4331328 29.6716662,12.6561797 C29.6716662,11.8799297 29.043005,11.2499297 28.2668366,11.2499297 C27.4906683,11.2499297 26.8620071,11.8799297 26.8620071,12.6561797" id="Fill-1147" fill="#F37A10"></path>
                            <path d="M40.2078878,18.2811797 C40.2078878,19.0581328 40.836549,19.6874297 41.6127173,19.6874297 C42.3888857,19.6874297 43.0175469,19.0581328 43.0175469,18.2811797 C43.0175469,17.5049297 42.3888857,16.8749297 41.6127173,16.8749297 C40.836549,16.8749297 40.2078878,17.5049297 40.2078878,18.2811797" id="Fill-1148" fill="#059BBF"></path>
                            <path d="M40.9103026,33.7499297 C40.9103026,34.5268828 41.5389638,35.1561797 42.3151321,35.1561797 C43.0913004,35.1561797 43.7199616,34.5268828 43.7199616,33.7499297 C43.7199616,32.9736797 43.0913004,32.3436797 42.3151321,32.3436797 C41.5389638,32.3436797 40.9103026,32.9736797 40.9103026,33.7499297" id="Fill-1149" fill="#FA5655"></path>
                            <path d="M24.7547628,2.81242969 C24.7547628,3.58938281 25.383424,4.21867969 26.1595923,4.21867969 C26.9357607,4.21867969 27.5644219,3.58938281 27.5644219,2.81242969 C27.5644219,2.03617969 26.9357607,1.40617969 26.1595923,1.40617969 C25.383424,1.40617969 24.7547628,2.03617969 24.7547628,2.81242969" id="Fill-1150" fill="#11B3A0"></path>
                            <polygon id="Fill-1151" fill="#FA5655" points="35.9071426 2.56795313 33.1311994 3.98404688 30.9277243 1.77834375 31.4152001 4.8594375 28.6385545 6.27482813 31.7165361 6.76279688 32.2040119 9.84389062 33.6186753 7.0644375 36.6959544 7.55240625 34.4924793 5.34670313"></polygon>
                            <polygon id="Fill-1152" fill="#F37A10" points="35.3155689 26.0155547 34.6461676 28.0771172 32.4813253 28.0771172 34.2331477 29.2414922 33.5637464 31.2482109 35.3155689 29.9467266 37.0673913 31.2067266 36.3979901 29.2485234 38.1498125 28.0771172 35.9842678 28.0771172"></polygon>
                            <path d="M30.374081,18.9843047 C37.3708345,18.9843047 38.8416911,14.5321172 40.0231527,10.9539141 C41.0072358,7.97688281 41.7841065,5.62492969 45.1247912,5.62492969 C45.5125241,5.62492969 45.827206,5.30992969 45.827206,4.92180469 C45.827206,4.53367969 45.5125241,4.21867969 45.1247912,4.21867969 C40.7691172,4.21867969 39.711983,7.41860156 38.6899695,10.5130547 C37.4895426,14.1461016 36.3558452,17.5780547 30.374081,17.5780547 C29.986348,17.5780547 29.6716662,17.8930547 29.6716662,18.2811797 C29.6716662,18.6693047 29.986348,18.9843047 30.374081,18.9843047" id="Fill-1153" fill="#DF2C2C"></path>
                            <path d="M20.9791429,14.6114297 C25.9016656,10.6690078 24.1533553,8.03017969 22.4626429,5.47713281 C21.5171926,4.05119531 20.5401337,2.57533594 20.5401337,0.702914062 C20.5401337,0.314789062 20.2254518,-0.0002109375 19.8377189,-0.0002109375 C19.4499859,-0.0002109375 19.1353041,0.314789062 19.1353041,0.702914062 C19.1353041,2.99932031 20.2809426,4.72900781 21.2917175,6.25478906 C22.935368,8.73541406 24.0213013,10.3743984 20.1011244,13.5131484 C19.7983837,13.7564297 19.7492146,14.1986953 19.9915477,14.5017422 C20.2359881,14.8068984 20.677807,14.8533047 20.9791429,14.6114297" id="Fill-1154" fill="#059BBF"></path>
                            <path d="M45.1247912,27.4218047 C45.5125241,27.4218047 45.827206,27.1068047 45.827206,26.7186797 C45.827206,26.3305547 45.5125241,26.0155547 45.1247912,26.0155547 C43.1172898,26.0155547 41.5150817,24.9461016 39.9655547,23.9118047 C37.4635533,22.2418828 34.8758572,20.5143047 31.2823033,24.1121953 C31.0076591,24.3864141 31.0076591,24.8321953 31.2823033,25.1064141 C31.556245,25.3813359 32.001576,25.3813359 32.2755178,25.1064141 C35.054973,22.3248516 36.6979212,23.4217266 39.1858743,25.0818047 C40.8295249,26.1786797 42.6916264,27.4218047 45.1247912,27.4218047" id="Fill-1155" fill="#11B3A0"></path>
                            <path d="M12.2662496,41.0284687 C5.86233409,43.9176094 13.5720386,40.4547187 7.16250384,43.3305 C5.60173821,41.7090937 4.12385753,39.972375 2.79207912,38.1407344 C3.53804361,36.4715156 4.44696832,34.4366719 5.40225241,32.3005781 C7.24609119,35.5574531 9.5907517,38.5197187 12.2662496,41.0284687" id="Fill-1156" fill="#DF2C2C"></path>
                            <path d="M8.69292514,37.153125 L4.95888821,40.8916406 C4.20379233,40.0014844 3.47819787,39.0839063 2.79193864,38.1410156 C3.53790313,36.4710938 4.44753026,34.4369531 5.40211193,32.3001563 C6.36863466,34.0073438 7.47564034,35.6308594 8.69292514,37.153125" id="Fill-1157" fill="#FA5655"></path>
                            <path d="M17.5737658,28.2817266 C22.1254136,32.8372734 27.3296046,35.2201641 29.1130357,33.4321172 C30.8824185,31.6609453 28.5742836,26.4922734 23.9664427,21.8727422 C19.35228,17.2609453 14.1895315,14.9582109 12.4187438,16.7209453 C10.3599661,18.7811016 13.7954768,24.4996172 17.5737658,28.2817266" id="Fill-1158" fill="#E2E4E5"></path>
                            <path d="M16.5518226,30.6266484 C14.0413922,27.2256328 12.522069,23.6333672 12.2010655,20.4243047 C11.8589895,19.4469609 11.7276379,18.5617266 11.8667161,17.8375078 L7.92546676,26.6708672 C8.91235952,28.8062578 10.1921592,30.9521953 11.7248283,33.0306328 C13.321417,35.1920391 15.1174916,37.1734453 17.0315719,38.9186016 L22.371329,36.5307891 C20.2542509,34.9487578 18.2474518,32.9336016 16.5518226,30.6266484" id="Fill-1159" fill="#DF2C2C"></path>
                            <path d="M23.961877,21.8689453 L17.5649857,28.2723047 C13.7902087,24.4901953 10.3610197,18.7794141 12.419095,16.7213672 C14.1891803,14.9586328 19.3491192,17.2592578 23.961877,21.8689453" id="Fill-1160" fill="#F0F1F1"></path>
                            <path d="M11.8664351,17.8373672 L7.9251858,26.6707266 C8.91278097,28.8061172 10.1918783,30.9520547 11.7252497,33.0304922 C11.8790786,33.2386172 12.0427412,33.4368984 12.2007845,33.6422109 L16.0022533,29.8361953 C13.8233626,26.6707266 12.4950963,23.3815078 12.1986773,20.4178359 C11.8587085,19.4433047 11.7280594,18.5601797 11.8664351,17.8373672" id="Fill-1161" fill="#FA5655"></path>
                        </g>
                    </g>
                </g>
            </g>
        </g>
    </g>
</svg>