<?xml version="1.0" encoding="utf-8"?>
<!-- Generator: Adobe Illustrator 18.0.0, SVG Export Plug-In . SVG Version: 6.00 Build 0)  -->
<!DOCTYPE svg PUBLIC "-//W3C//DTD SVG 1.1//EN" "http://www.w3.org/Graphics/SVG/1.1/DTD/svg11.dtd">
<svg version="1.1" id="Capa_1" xmlns="http://www.w3.org/2000/svg" xmlns:xlink="http://www.w3.org/1999/xlink" x="0px" y="0px"
	 viewBox="0 192 595.3 456.8" enable-background="new 0 192 595.3 456.8" xml:space="preserve">
<g>
	<g>
		<g>
			<path fill="#A32422" d="M61,578.6l-12.4,70.2L37,648.7l-6.6-38.5l-6.9,38.6L12,648.7L0,578.5h11.3l6.6,47.6l6.9-47.6h11.4
				l6.6,47.6l6.9-47.6H61V578.6z"/>
			<path fill="#A32422" d="M97.2,633.6c0,4.5-1.6,8.3-4.8,11.4c-3.2,3.2-7,4.8-11.4,4.8h-2.8c-4.5,0-8.3-1.6-11.4-4.7
				c-3.2-3.2-4.8-7-4.8-11.4v-19.6c0-4.4,1.6-8.3,4.8-11.4c3.2-3.2,7-4.7,11.4-4.7h2.8c4.5,0,8.3,1.6,11.4,4.8
				c3.2,3.2,4.8,7,4.8,11.4v14.9H72.7v1.8c0,3.4,0.7,5.7,2.2,7c1.5,1.3,4,2,7.5,2c1.9,0,3.2-2,4-6.3h10.8V633.6z M86.3,620v-3.4
				c0-6-2.3-9.1-7-9.1c-4.4,0-6.6,3.1-6.6,9.1v3.4H86.3z"/>
			<path fill="#A32422" d="M138.1,633.6c0,5-1.8,8.9-5.1,11.9s-7.8,4.2-12.9,4.2c-1.2,0-2.5-0.4-4-1.3c-1.5-0.9-2.6-1.8-3.1-2.8v3.1
				h-10.4v-70.1l11.3-0.1v22.2c1.6-2,4.2-3.1,8.2-3.1c4.4,0,8.2,1.6,11.4,4.7c3.1,3.2,4.7,7,4.7,11.4v19.9H138.1z M127.5,630.7
				v-14.2c0-6-2.3-9.1-7-9.1c-4.2,0-6.4,2-6.4,6.1v19.8c0,1.8,0.7,3.4,2,4.5s2.9,1.8,4.8,1.8C125.3,639.8,127.5,636.7,127.5,630.7z"
				/>
			<path fill="#7D7E7D" d="M179.4,633.6c0,4.4-1.6,8.3-4.8,11.4c-3.2,3.2-7,4.7-11.4,4.7h-2.8c-4.5,0-8.3-1.6-11.4-4.7
				c-3.2-3.2-4.8-7-4.8-11.4v-55.8H155v52.8c0,6,2.3,9.1,7,9.1c4.4,0,6.6-3.1,6.6-9.1v-52.8h10.8L179.4,633.6L179.4,633.6z"/>
			<path fill="#7D7E7D" d="M221.5,613.2v35.7H211v-33.2c0-6-2.3-9.1-7.2-9.1c-4.4,0-6.6,2-6.6,6.1l0.3,36h-11.4v-51.9l11,0.1v2.6
				c1.6-1.9,4.7-2.8,9.2-2.8c4.4,0,8,1.6,10.8,4.7C220.2,604.8,221.5,608.6,221.5,613.2z"/>
			<path fill="#7D7E7D" d="M239.7,590.6h-11.3v-12l11.3,0.1V590.6z M239.7,648.9h-11.3v-51.9h11.3V648.9z"/>
			<path fill="#7D7E7D" d="M280.1,633.6c0,4.4-1.6,8.3-4.8,11.4c-3.2,3.2-7,4.7-11.4,4.7h-2.8c-4.5,0-8.3-1.6-11.4-4.7
				c-3.2-3.2-4.8-7-4.8-11.4V614c0-4.4,1.6-8.3,4.8-11.4c3.2-3.2,7-4.7,11.4-4.7h2.8c4.5,0,8.3,1.6,11.4,4.7c3.2,3.2,4.8,7,4.8,11.4
				V633.6z M269.3,630.7v-14.2c0-6-2.3-9.1-7-9.1c-4.4,0-6.6,3.1-6.6,9.1v14.2c0,6,2.3,9.1,7,9.1
				C267.1,639.8,269.3,636.7,269.3,630.7z"/>
			<path fill="#7D7E7D" d="M321.3,613.2v35.7h-10.5v-33.2c0-6-2.3-9.1-7.2-9.1c-4.4,0-6.6,2-6.6,6.1l0.3,36h-11.4v-51.9l11,0.1v2.6
				c1.6-1.9,4.7-2.8,9.2-2.8c4.4,0,8,1.6,10.8,4.7C320,604.8,321.3,608.6,321.3,613.2z"/>
			<path fill="#A32422" d="M362.6,619v14.6c0,4.4-1.6,8.2-4.8,11.4c-3.2,3.2-7,4.7-11.4,4.7h-2.8c-4.5,0-8.3-1.6-11.4-4.7
				c-3.2-3.2-4.8-7-4.8-11.4v-40.2c0-4.4,1.6-8.3,4.8-11.4c3.2-3.2,7-4.7,11.4-4.7h2.8c4.5,0,8.3,1.6,11.4,4.8
				c3.2,3.2,4.8,7,4.8,11.4v11.1h-10.8c0-0.4,0-1.2,0-2.2c0-0.9,0-1.6,0-2.2c0-3.8-0.3-6.7-0.9-8.5c-1-3.1-3.2-4.7-6.3-4.7
				c-4.4,0-6.6,3.1-6.6,9.1v34.7c0,6,2.3,9.1,7,9.1c2.9,0,5-1.2,5.9-3.4c0.4-1.3,0.7-3.7,0.7-7.2h-7.5v-10.2h18.4V619z"/>
			<path fill="#A32422" d="M400.8,603.1l-8.9,7c-1-2.2-3.1-3.4-6.1-3.4c-4.2,0-6.4,2-6.4,6.1l0.3,36h-11.4v-51.9l11,0.1v2.6
				c1.6-1.9,4.8-2.8,9.4-2.8C393.8,596.9,397.9,599,400.8,603.1z"/>
			<path fill="#A32422" d="M436.2,648.9h-10.8v-3.7c-0.1,3.1-3.2,4.7-9.4,4.7c-4.2,0-8-1.3-11.4-4.1c-3.7-2.9-5.6-6.4-5.6-10.4
				c0-2.6,0.7-5.1,2.2-7.8c1.5-2.6,3.2-4.7,5.3-6.3c2.5-1.9,5.9-2.8,10.1-2.8c3.7,0,6.6,0.4,8.8,1.5v-2.9c0-6-2.3-9.1-7-9.1
				c-2,0-3.5,0.6-4.5,1.6c-0.7,0.7-1.5,2.3-2.2,4.5H401c0-4.5,1.6-8.3,4.8-11.4c3.2-3.2,7-4.8,11.4-4.8h2.8c4.5,0,8.3,1.6,11.4,4.8
				c3.2,3.2,4.8,7,4.8,11.4L436.2,648.9L436.2,648.9z M425.4,633.8c0-1.9-0.7-3.5-2.3-5c-1.6-1.3-3.4-2-5.3-2
				c-1.9,0-3.8,0.7-5.7,2.3c-1.9,1.6-2.8,3.2-2.8,5.1c0,1.9,1,3.4,2.9,4.7c1.8,1.2,3.5,1.8,5.6,1.8c1.9,0,3.7-0.7,5.3-2
				C424.7,637.2,425.4,635.7,425.4,633.8z"/>
			<path fill="#A32422" d="M475.1,613.2v35.7h-10.5v-33.2c0-6-2.3-9.1-7.2-9.1c-4.4,0-6.6,2-6.6,6.1l0.3,36h-11.4v-51.9l11,0.1v2.6
				c1.6-1.9,4.7-2.8,9.2-2.8c4.4,0,8,1.6,10.8,4.7C473.8,604.8,475.1,608.6,475.1,613.2z"/>
			<path fill="#A32422" d="M515.4,648.9h-10.8v-3.7c-0.1,3.1-3.2,4.7-9.4,4.7c-4.2,0-8-1.3-11.4-4.1c-3.7-2.9-5.6-6.4-5.6-10.4
				c0-2.6,0.7-5.1,2.2-7.8s3.2-4.7,5.3-6.3c2.5-1.9,5.9-2.8,10.1-2.8c3.7,0,6.6,0.4,8.8,1.5v-2.9c0-6-2.3-9.1-7-9.1
				c-2,0-3.5,0.6-4.5,1.6c-0.7,0.7-1.5,2.3-2.2,4.5h-10.7c0-4.5,1.6-8.3,4.8-11.4c3.2-3.2,7-4.8,11.4-4.8h2.8
				c4.5,0,8.3,1.6,11.4,4.8c3.2,3.2,4.8,7,4.8,11.4V648.9z M504.6,633.8c0-1.9-0.7-3.5-2.3-5c-1.6-1.3-3.4-2-5.3-2
				c-1.9,0-3.8,0.7-5.7,2.3c-1.9,1.6-2.8,3.2-2.8,5.1c0,1.9,1,3.4,2.9,4.7c1.8,1.2,3.5,1.8,5.6,1.8c1.9,0,3.7-0.7,5.3-2
				C503.8,637.2,504.6,635.7,504.6,633.8z"/>
			<path fill="#A32422" d="M554.7,578.6v70.2h-10.4v-3.1c-1.5,2.8-4.4,4.1-8.9,4.1s-8.3-1.6-11.4-4.7c-3.2-3.2-4.8-7-4.8-11.4v-19.6
				c0-4.4,1.6-8.3,4.7-11.4c3.1-3.2,6.9-4.7,11.4-4.7h2.8c2,0,3.8,1,5.4,3.1v-22.2L554.7,578.6z M543.5,613.7c0-4.1-2.2-6.1-6.4-6.1
				c-4.7,0-7,3.1-7,9.1v14.2c0,6,2.2,9.1,6.6,9.1c1.8,0,3.4-0.6,4.8-1.8c1.3-1.2,2-2.8,2-4.5V613.7z"/>
			<path fill="#A32422" d="M595.3,648.9h-10.8v-3.7c-0.1,3.1-3.2,4.7-9.4,4.7c-4.2,0-8-1.3-11.4-4.1c-3.7-2.9-5.6-6.4-5.6-10.4
				c0-2.6,0.7-5.1,2.2-7.8s3.2-4.7,5.3-6.3c2.5-1.9,5.9-2.8,10.1-2.8c3.7,0,6.6,0.4,8.8,1.5v-2.9c0-6-2.3-9.1-7-9.1
				c-2,0-3.5,0.6-4.5,1.6c-0.7,0.7-1.5,2.3-2.2,4.5H560c0-4.5,1.6-8.3,4.8-11.4s7-4.8,11.4-4.8h2.8c4.5,0,8.3,1.6,11.4,4.8
				c3.2,3.2,4.8,7,4.8,11.4V648.9z M584.5,633.8c0-1.9-0.7-3.5-2.3-5c-1.6-1.3-3.4-2-5.3-2s-3.8,0.7-5.7,2.3
				c-1.9,1.6-2.8,3.2-2.8,5.1c0,1.9,1,3.4,2.9,4.7c1.8,1.2,3.5,1.8,5.6,1.8c1.9,0,3.7-0.7,5.3-2
				C583.7,637.2,584.5,635.7,584.5,633.8z"/>
		</g>
		<g>
			<g>
				<g>
					<path id="SVGID_1_" fill="#A32422" d="M260.2,232l126.3,211.7L495.2,232c0,0-23.4,0-25.9,0l-52.1,95l-22.5-38.8L444,192h6.3
						h117.5L390.1,537.8L205.6,232C205.6,232,260.2,232,260.2,232z"/>
				</g>
				<g>
					<defs>
						<path id="SVGID_2_" d="M260.2,232l126.3,211.7L495.2,232c0,0-23.4,0-25.9,0l-52.1,95l-22.5-38.8L444,192h6.3h117.5
							L390.1,537.8L205.6,232C205.6,232,260.2,232,260.2,232z"/>
					</defs>
					<clipPath id="SVGID_3_">
						<use xlink:href="#SVGID_2_"  overflow="visible"/>
					</clipPath>
					<polyline clip-path="url(#SVGID_3_)" fill="#721E18" points="177.4,208.7 211,208.7 430.1,208.7 241.6,575.4 19.6,209 
						78.7,209 237.8,475.5 339.9,271.6 205.6,232 					"/>
				</g>
			</g>
			<polygon fill="#7D7E7D" points="180.1,192 211.9,192 418.4,192 240.7,537.8 31.3,192.2 87.1,192.2 237.1,443.6 345.8,232 
				205.6,232 			"/>
		</g>
	</g>
	
		<text transform="matrix(0.9745 0 0 1 31.2921 168.7225)" fill="#B22622" font-family="'ArialMT'" font-size="54.143" letter-spacing="8.2">Web</text>
	<text transform="matrix(0.9745 0 0 1 159.2046 168.7225)" font-family="'ArialMT'" font-size="54.143" letter-spacing="8.2">Unión</text>
	
		<text transform="matrix(0.9745 0 0 1 340.7354 168.7225)" fill="#A32422" font-family="'ArialMT'" font-size="54.143" letter-spacing="8.2">Granada</text>
</g>
</svg>
