<?xml version="1.0" encoding="UTF-8" standalone="no"?>
<svg width="81px" height="81px" viewBox="0 0 81 81" version="1.1" xmlns="http://www.w3.org/2000/svg" xmlns:xlink="http://www.w3.org/1999/xlink">
    <!-- Generator: Sketch 3.8.3 (29802) - http://www.bohemiancoding.com/sketch -->
    <title>Group</title>
    <desc>Created with Sketch.</desc>
    <defs></defs>
    <g id="Home" stroke="none" stroke-width="1" fill="none" fill-rule="evenodd">
        <g id="Mobile-Portrait" transform="translate(-5.000000, -448.000000)">
            <g id="Join-us" transform="translate(0.000000, 326.000000)">
                <g id="Speakers">
                    <g id="Group" transform="translate(5.000000, 122.000000)">
                        <path d="M40.5,81 C62.8675324,81 81,62.8675324 81,40.5 C81,18.1324676 62.8675324,0 40.5,0 C18.1324676,0 0,18.1324676 0,40.5 C0,62.8675324 18.1324676,81 40.5,81 Z" id="Oval-1" fill="#841913"></path>
                        <g id="Icono" transform="translate(15.000000, 16.000000)">
                            <path d="M11.1546923,31.7569766 L6.81776923,22.2226484 C6.40084615,21.3054297 5.31623077,20.8988828 4.39469231,21.3138516 C3.47392308,21.7288203 3.06469231,22.8091172 3.48161538,23.7255703 L7.82084615,33.2652578 L11.1546923,31.7569766 Z" id="Fill-382" fill="#3E3E3F"></path>
                            <polygon id="Fill-383" fill="#F3B606" points="14.4261538 33.6875 13.6569231 30.625 5.19538462 34.453125 8.27230769 36.75"></polygon>
                            <path d="M46.7338462,37.5104187 C45.0407692,36.4362469 39.0415385,34.4532781 34.4261538,32.1564031 C35.4946154,27.0841375 38.2723077,18.3751531 36.7338462,8.42202812 C36.0323077,3.88187187 28.2723077,0.000153125 25.1953846,0.000153125 C22.1184615,0.000153125 14.3584615,3.88187187 13.6569231,8.42202812 C12.1184615,18.3751531 14.8961538,27.0841375 15.9646154,32.1564031 C11.3492308,34.4532781 5.35,36.4362469 3.65692308,37.5104187 C1.31846154,38.9934344 0.58,49.0001531 0.58,49.0001531 L49.8107692,49.0001531 C49.8107692,49.0001531 49.0723077,38.9934344 46.7338462,37.5104187" id="Fill-384" fill="#3E3E3F"></path>
                            <path d="M25.1953846,38.4726562 L25.1953846,0 C22.1184615,0 14.3584615,3.88171875 13.6569231,8.421875 C12.1184615,18.375 14.8961538,27.0839844 15.9646154,32.15625 L25.1953846,38.4726562 Z" id="Fill-385" fill="#5B5C5F"></path>
                            <path d="M25.1953846,13.78125 C19.8107692,13.78125 15.9646154,14.546875 15.9646154,14.546875 L15.9646154,18.375 C15.9646154,18.375 21.3492308,22.96875 25.1953846,22.96875 C29.0415385,22.96875 34.4261538,18.375 34.4261538,18.375 L34.4261538,14.546875 C34.4261538,14.546875 30.58,13.78125 25.1953846,13.78125" id="Fill-386" fill="#FBD7D7"></path>
                            <path d="M34.4261538,18.375 L34.4261538,14.546875 C34.4261538,14.546875 30.58,13.78125 25.1953846,13.78125 L25.1953846,22.96875 C29.0415385,22.96875 34.4261538,18.375 34.4261538,18.375" id="Fill-387" fill="#FBC8C8"></path>
                            <path d="M22.8828462,17.609375 C22.8828462,16.764125 22.1936154,16.078125 21.3443846,16.078125 L21.3397692,16.078125 C21.3405385,16.0942031 21.3443846,16.1102812 21.3443846,16.1263594 C21.3443846,16.9700781 20.6582308,17.6545469 19.8105385,17.6568437 C19.8359231,18.4798906 20.5113077,19.140625 21.3443846,19.140625 C22.1936154,19.140625 22.8828462,18.454625 22.8828462,17.609375" id="Fill-388" fill="#3E3E3F"></path>
                            <path d="M30.5702308,17.609375 C30.5702308,16.764125 29.881,16.078125 29.0317692,16.078125 L29.0271538,16.078125 C29.0279231,16.0942031 29.0317692,16.1102812 29.0317692,16.1263594 C29.0317692,16.9700781 28.3456154,17.6545469 27.4979231,17.6568437 C27.5240769,18.4798906 28.1986923,19.140625 29.0317692,19.140625 C29.881,19.140625 30.5702308,18.454625 30.5702308,17.609375" id="Fill-389" fill="#3E3E3F"></path>
                            <path d="M27.4504615,40.0156969 L15.9643077,32.1565562 C14.8650769,32.7032125 13.6866154,33.2322594 12.5073846,33.735275 L24.3650769,42.2773531 L27.4504615,40.0156969 Z" id="Fill-390" fill="#E2E4E5"></path>
                            <path d="M23.9577692,49 L40.2016154,34.698125 C39.0608462,34.2349219 37.8754615,33.7418594 36.7131538,33.2250625 L15.1954615,49 L23.9577692,49 Z" id="Fill-391" fill="#F0F1F1"></path>
                        </g>
                    </g>
                </g>
            </g>
        </g>
    </g>
</svg>