<?xml version="1.0" encoding="UTF-8" standalone="no"?>
<svg width="66px" height="42px" viewBox="0 0 66 42" version="1.1" xmlns="http://www.w3.org/2000/svg" xmlns:xlink="http://www.w3.org/1999/xlink">
    <!-- Generator: Sketch 3.6.1 (26313) - http://www.bohemiancoding.com/sketch -->
    <title>Logo</title>
    <desc>Created with Sketch.</desc>
    <defs>
        <path id="path-1" d="M29.7279855,0.2821875 L28.9692195,0.2821875 L23.0024989,11.8024375 L25.7286653,16.4443125 L32.0369853,5.0588125 C32.3445574,5.0588125 35.1732478,5.05925 35.1732478,5.05925 L35.1732478,5.05925 L22.0112862,30.415 L6.73476683,5.05925 L0.126387357,5.05925 L22.4483389,41.701625 L43.9478889,0.2821875"></path>
    </defs>
    <g id="Page-1" stroke="none" stroke-width="1" fill="none" fill-rule="evenodd">
        <g id="Home" transform="translate(-108.000000, -13.000000)">
            <g id="Header" transform="translate(0.000000, -1.000000)">
                <g id="Logo" transform="translate(108.000000, 14.000000)">
                    <g id="Group-26" transform="translate(21.211864, 0.000000)">
                        <path d="M6.73467845,5.05929375 L22.0116397,30.4150437 L35.1731594,5.05929375 C35.1731594,5.05929375 32.3449109,5.05885625 32.0368969,5.05885625 L25.728577,16.4439187 L23.0024105,11.8020437 L28.969573,0.28223125 L29.7278972,0.28223125 L43.9478005,0.28223125 L22.4482506,41.7016687 L0.126298974,5.05929375 L6.73467845,5.05929375 Z" id="Fill-22" fill="#BE1F1D"></path>
                        <mask id="mask-2" fill="white">
                            <use xlink:href="#path-1"></use>
                        </mask>
                        <g id="Clip-25"></g>
                        <path d="M-3.28072411,2.283925 L0.791953782,2.283925 L27.2913168,2.283925 L4.48944683,46.2128625 L-22.3797981,2.3079875 L-15.2141653,2.3079875 L4.02632113,34.2419875 L16.3888606,9.8133 L0.126431548,5.059425" id="Fill-24" fill="#851811" mask="url(#mask-2)"></path>
                    </g>
                    <path d="M18.258819,0.2823625 L22.0986083,0.2823625 L47.0848584,0.2823625 L25.5853085,41.7018 L0.250830292,0.3051125 L7.0072509,0.3051125 L25.1486976,30.415175 L38.3102173,5.059425 L21.3385165,5.059425 L18.258819,0.2823625 Z" id="Fill-27" fill="#7D7E7D"></path>
                </g>
            </g>
        </g>
    </g>
</svg>